<svg xmlns="http://www.w3.org/2000/svg" xmlns:xlink="http://www.w3.org/1999/xlink" focusable="false" width="1em" height="1em" preserveAspectRatio="xMidYMid meet" viewBox="0 0 24 24"><path d="M11 5.12L9.29 3.41L10.71 2L12 3.29L13.29 2l1.42 1.41L13 5.12v2.26l2.45 1.44l2-1.13l.62-2.33l1.93.52l-.46 1.77l1.77.47l-.52 1.93l-2.33-.62l-2 1.13v2.7L14.5 11.3v-.74l-1.76-1.02l-2.01-2.01l.27-.15V5.12m7.46 9.45l-1.59-.9l2.68 2.68l1.75-.47l-.51-1.93l-2.33.62M13 16.62v2.26l1.7 1.71L13.29 22L12 20.71L10.71 22l-1.42-1.41L11 18.88v-2.26l-2.45-1.44l-2 1.13l-.62 2.33L4 18.12l.47-1.76l-1.77-.47l.52-1.93l2.33.62l2-1.13v-2.89l-2-1.13l-2.33.62l-.52-1.93l1.77-.47L4 5.89L1.11 3l1.28-1.27l19.72 19.73l-1.27 1.27L14.1 16l-1.1.62m-1-1.73l.63-.39l-3.13-3.11v2.05l2.5 1.45z" fill="#626262" class='jp-icon3'/></svg>
